<svg width="512" height="512" viewBox="0 0 512 512" fill="none" xmlns="http://www.w3.org/2000/svg">
  <!-- Background gradient -->
  <defs>
    <linearGradient id="bgGradient" x1="0%" y1="0%" x2="100%" y2="100%">
      <stop offset="0%" style="stop-color:#3b82f6;stop-opacity:1" />
      <stop offset="50%" style="stop-color:#8b5cf6;stop-opacity:1" />
      <stop offset="100%" style="stop-color:#ec4899;stop-opacity:1" />
    </linearGradient>
    <linearGradient id="globeGradient" x1="0%" y1="0%" x2="100%" y2="100%">
      <stop offset="0%" style="stop-color:#60a5fa;stop-opacity:1" />
      <stop offset="100%" style="stop-color:#3b82f6;stop-opacity:1" />
    </linearGradient>
  </defs>

  <!-- Rounded square background -->
  <rect width="512" height="512" rx="110" fill="url(#bgGradient)"/>

  <!-- Globe -->
  <circle cx="256" cy="220" r="120" fill="url(#globeGradient)" opacity="0.3"/>
  <circle cx="256" cy="220" r="100" fill="none" stroke="white" stroke-width="6"/>

  <!-- Latitude lines -->
  <ellipse cx="256" cy="220" rx="100" ry="30" fill="none" stroke="white" stroke-width="2" opacity="0.6"/>
  <ellipse cx="256" cy="220" rx="100" ry="60" fill="none" stroke="white" stroke-width="2" opacity="0.6"/>

  <!-- Longitude lines -->
  <ellipse cx="256" cy="220" rx="30" ry="100" fill="none" stroke="white" stroke-width="2" opacity="0.6"/>
  <ellipse cx="256" cy="220" rx="60" ry="100" fill="none" stroke="white" stroke-width="2" opacity="0.6"/>

  <!-- Location pins -->
  <g transform="translate(200, 180)">
    <path d="M0,0 C0,-12 10,-20 10,-30 C10,-40 0,-45 0,-45 C0,-45 -10,-40 -10,-30 C-10,-20 0,-12 0,0 Z" fill="#fbbf24" stroke="white" stroke-width="2"/>
    <circle cx="0" cy="-32" r="4" fill="white"/>
  </g>

  <g transform="translate(310, 200)">
    <path d="M0,0 C0,-10 8,-16 8,-24 C8,-32 0,-36 0,-36 C0,-36 -8,-32 -8,-24 C-8,-16 0,-10 0,0 Z" fill="#ef4444" stroke="white" stroke-width="2"/>
    <circle cx="0" cy="-25" r="3" fill="white"/>
  </g>

  <g transform="translate(270, 260)">
    <path d="M0,0 C0,-8 6,-12 6,-18 C6,-24 0,-27 0,-27 C0,-27 -6,-24 -6,-18 C-6,-12 0,-8 0,0 Z" fill="#10b981" stroke="white" stroke-width="2"/>
    <circle cx="0" cy="-19" r="2.5" fill="white"/>
  </g>

  <!-- Camera icon -->
  <g transform="translate(256, 380)">
    <!-- Camera body -->
    <rect x="-45" y="-20" width="90" height="60" rx="8" fill="white"/>
    <rect x="-35" y="-30" width="70" height="15" rx="4" fill="white"/>

    <!-- Lens -->
    <circle cx="0" cy="10" r="22" fill="#3b82f6"/>
    <circle cx="0" cy="10" r="15" fill="#60a5fa"/>
    <circle cx="0" cy="10" r="8" fill="white" opacity="0.4"/>

    <!-- Flash -->
    <circle cx="25" cy="-5" r="5" fill="#fbbf24"/>

    <!-- Viewfinder -->
    <rect x="-25" y="-22" width="15" height="8" rx="2" fill="#e5e7eb"/>
  </g>
</svg>
